<svg width="66" height="169" viewBox="0 0 66 169" fill="none" xmlns="http://www.w3.org/2000/svg">
<g clip-path="url(#clip0_2059_2279)">
<path d="M44.6852 168.692L65.813 168.692L55.2491 158.311L44.6852 168.692Z" fill="#FF5722"/>
<path d="M44.6852 133.514L65.813 133.514L55.2491 123.133L44.6852 133.514Z" fill="#FF5722"/>
<path d="M44.6852 98.3203L65.813 98.3203L55.2491 87.9393L44.6852 98.3203Z" fill="#FF5722"/>
<path d="M44.6852 63.1416L65.813 63.1416L55.2491 52.7606L44.6852 63.1416Z" fill="#FF5722"/>
<path d="M44.6852 27.9634L65.813 27.9634L55.2491 17.5674L44.6852 27.9634Z" fill="#FF5722"/>
<path d="M0.338512 151.59L21.4663 151.59L10.9024 141.209L0.338512 151.59Z" fill="#FF5722"/>
<path d="M0.338512 116.397L21.4663 116.397L10.9024 106.016L0.338512 116.397Z" fill="#FF5722"/>
<path d="M0.338512 81.2188L21.4663 81.2188L10.9024 70.8378L0.338512 81.2188Z" fill="#FF5722"/>
<path d="M0.338512 46.04L21.4663 46.04L10.9024 35.659L0.338512 46.04Z" fill="#FF5722"/>
<path d="M0.338512 10.8467L21.4663 10.8467L10.9024 0.46569L0.338512 10.8467Z" fill="#FF5722"/>
</g>
<defs>
<clipPath id="clip0_2059_2279">
<rect width="65.4748" height="168.226" fill="white" transform="translate(65.813 168.692) rotate(180)"/>
</clipPath>
</defs>
</svg>
