<svg width="118" height="349" viewBox="0 0 118 349" fill="none" xmlns="http://www.w3.org/2000/svg">
<g clip-path="url(#clip0_2059_2678)">
<path d="M192.233 1.0547C217.527 -0.859917 242.544 18.9547 246.003 43.6522C247.801 56.4314 244.481 69.5958 246.936 82.2731C250.383 100.071 264.564 113.927 279.39 124.712C294.216 135.497 310.656 144.696 322.311 158.733C333.978 172.77 339.743 193.706 329.978 209.08C320.536 223.955 299.888 229.132 290.619 244.121C275.539 268.49 298.885 302.216 286.099 327.82C279.643 340.747 264.668 348.326 250.015 348.462C235.362 348.598 221.227 342.186 209.872 333.077C196.475 322.337 185.73 307.518 169.521 301.616C143.132 292.02 115.394 309.66 87.8054 315.075C61.8197 320.184 32.5714 313.002 15.2667 293.278C-2.03786 273.554 -3.98621 241.017 14.0216 221.904C23.7404 211.584 38.5548 204.945 43.1893 191.633C48.9421 175.115 36.0761 158.665 26.4727 143.983C18.5063 131.804 12.2232 118.039 11.8658 103.572C11.5084 89.0932 18.0106 73.8669 30.7268 66.5483C61.7275 48.6823 103.531 83.0435 132.767 58.1194C155.352 38.8826 154.58 3.90964 192.233 1.0547Z" stroke="#FF5722" stroke-width="0.858384" stroke-miterlimit="10"/>
<path d="M190.953 10.2993C214.898 8.48662 238.59 27.2476 241.864 50.6309C243.559 62.7304 240.423 75.1924 242.752 87.1899C246.014 104.048 259.445 117.155 273.476 127.363C287.506 137.571 303.07 146.283 314.114 159.572C325.159 172.861 330.612 192.675 321.378 207.233C312.431 221.315 292.89 226.221 284.105 240.405C269.833 263.471 291.933 295.408 279.828 319.652C273.718 331.887 259.537 339.059 245.657 339.195C231.788 339.331 218.403 333.247 207.658 324.637C194.977 314.475 184.808 300.438 169.452 294.853C144.469 285.767 118.207 302.466 92.0944 307.598C67.4921 312.435 39.8001 305.638 23.4178 286.967C7.02396 268.297 5.19089 237.493 22.2419 219.401C31.4533 209.635 45.4722 203.336 49.8531 190.749C55.2947 175.115 43.1204 159.538 34.0242 145.637C26.4844 134.104 20.5356 121.075 20.1898 107.378C19.8439 93.6702 26.0118 79.2596 38.0477 72.3262C67.3999 55.4118 106.978 87.949 134.647 64.3505C156.021 46.1219 155.295 13.0183 190.953 10.3106V10.2993Z" stroke="#FF5722" stroke-width="0.824049" stroke-linecap="round" stroke-linejoin="round"/>
<path d="M189.673 19.5439C212.27 17.8332 234.624 35.5406 237.725 57.5984C239.327 69.0181 236.365 80.7778 238.555 92.1069C241.633 108.013 254.315 120.384 267.55 130.025C280.796 139.666 295.484 147.88 305.906 160.421C316.328 172.963 321.481 191.667 312.754 205.409C304.315 218.698 285.869 223.332 277.58 236.723C264.114 258.497 284.97 288.633 273.545 311.506C267.78 323.062 254.396 329.826 241.299 329.95C228.202 330.075 215.578 324.342 205.433 316.208C193.466 306.612 183.863 293.368 169.383 288.1C145.807 279.524 121.02 295.283 96.3714 300.121C73.1525 304.686 47.0285 298.274 31.5569 280.646C16.0854 263.029 14.3561 233.947 30.4502 216.874C39.1428 207.652 52.3663 201.716 56.5051 189.832C61.6469 175.07 50.1527 160.376 41.5638 147.257C34.4391 136.381 28.8361 124.078 28.5133 111.151C28.1905 98.2132 34.001 84.607 45.3568 78.0701C73.0603 62.1074 110.402 92.8093 136.526 70.5476C156.701 53.35 156.009 22.1043 189.662 19.5552L189.673 19.5439Z" stroke="#FF5722" stroke-width="0.789713" stroke-linecap="round" stroke-linejoin="round"/>
<path d="M188.394 28.7885C209.641 27.1798 230.669 43.8336 233.575 64.5772C235.085 75.3172 232.295 86.3744 234.359 97.0237C237.264 111.978 249.173 123.624 261.624 132.676C274.075 141.74 287.887 149.466 297.697 161.26C307.497 173.053 312.339 190.647 304.142 203.563C296.21 216.07 278.859 220.409 271.066 233.007C258.396 253.479 278.018 281.824 267.273 303.338C261.843 314.203 249.265 320.57 236.953 320.683C224.64 320.796 212.765 315.404 203.231 307.756C191.979 298.739 182.952 286.277 169.325 281.326C147.155 273.259 123.844 288.078 100.66 292.632C78.8247 296.926 54.257 290.887 39.7077 274.324C25.1585 257.75 23.533 230.413 38.6702 214.359C46.844 205.693 59.2835 200.107 63.1687 188.925C67.9992 175.047 57.1968 161.226 49.1267 148.888C42.4285 138.658 37.1484 127.091 36.8486 114.935C36.5489 102.768 42.0135 89.977 52.6891 83.8253C78.744 68.8142 113.86 97.6808 138.428 76.7446C157.404 60.5667 156.759 31.1789 188.394 28.7885Z" stroke="#FF5722" stroke-width="0.755378" stroke-linecap="round" stroke-linejoin="round"/>
<path d="M187.114 38.0331C207.024 36.5263 226.703 52.1265 229.436 71.5559C230.842 81.6162 228.237 91.971 230.174 101.952C232.894 115.966 244.054 126.865 255.71 135.35C267.365 143.836 280.312 151.075 289.489 162.121C298.666 173.167 303.208 189.639 295.518 201.739C288.082 213.453 271.838 217.52 264.541 229.314C252.678 248.494 271.054 275.038 260.99 295.181C255.906 305.355 244.123 311.314 232.583 311.427C221.054 311.54 209.929 306.488 200.994 299.328C190.457 290.876 181.995 279.207 169.233 274.574C148.47 267.017 126.634 280.895 104.926 285.166C84.4736 289.188 61.4623 283.535 47.8353 268.014C34.2084 252.493 32.6866 226.889 46.8554 211.844C54.5104 203.721 66.166 198.499 69.8091 188.019C74.3283 175.025 64.2176 162.076 56.6548 150.52C50.3832 140.935 45.4373 130.105 45.1607 118.719C44.8724 107.333 50.0027 95.3471 59.9981 89.5805C84.4044 75.5211 117.296 102.564 140.296 82.953C158.061 67.806 157.462 40.2763 187.091 38.0331H187.114Z" stroke="#FF5722" stroke-width="0.709597" stroke-linecap="round" stroke-linejoin="round"/>
<path d="M185.834 47.2891C204.396 45.8843 222.749 60.4196 225.297 78.5461C226.611 87.9266 224.179 97.5791 225.977 106.88C228.514 119.943 238.913 130.105 249.796 138.024C260.667 145.932 272.738 152.684 281.292 162.993C289.846 173.291 294.077 188.654 286.918 199.938C279.989 210.859 264.841 214.654 258.039 225.643C246.983 243.521 264.103 268.275 254.73 287.058C249.992 296.541 239.005 302.103 228.248 302.205C217.492 302.307 207.128 297.594 198.793 290.922C188.959 283.048 181.084 272.172 169.187 267.844C149.83 260.798 129.47 273.747 109.226 277.723C90.1575 281.473 68.7025 276.205 55.9979 261.727C43.2932 247.259 41.8752 223.377 55.0871 209.363C62.2234 201.796 73.0834 196.913 76.4844 187.158C80.7039 175.036 71.2734 162.971 64.2178 152.197C58.3728 143.258 53.7613 133.164 53.4961 122.548C53.231 111.933 58.0039 100.751 67.3306 95.3812C90.0768 82.2734 120.755 107.481 142.198 89.1955C158.765 75.0681 158.2 49.4077 185.834 47.3118V47.2891Z" stroke="#FF5722" stroke-width="0.675262" stroke-linecap="round" stroke-linejoin="round"/>
<path d="M184.543 56.5337C201.756 55.2309 218.783 68.7125 221.135 85.5249C222.357 94.2257 220.098 103.176 221.769 111.808C224.121 123.919 233.771 133.345 243.858 140.686C253.946 148.028 265.129 154.281 273.072 163.843C281.015 173.393 284.935 187.634 278.295 198.102C271.862 208.23 257.82 211.754 251.513 221.95C241.253 238.525 257.139 261.489 248.447 278.901C244.054 287.693 233.863 292.859 223.891 292.95C213.918 293.04 204.303 288.678 196.579 282.481C187.46 275.174 180.151 265.091 169.118 261.081C151.156 254.555 132.283 266.553 113.515 270.235C95.8296 273.713 75.9311 268.819 64.1487 255.405C52.3664 241.98 51.0521 219.843 63.3071 206.837C69.9246 199.813 80.0007 195.293 83.148 186.241C87.0563 175.002 78.306 163.809 71.7692 153.817C66.3507 145.535 62.0735 136.166 61.8314 126.321C61.5893 116.476 66.0164 106.11 74.6629 101.125C95.7605 88.9689 124.202 112.352 144.1 95.3926C159.468 82.2961 158.938 58.4936 184.566 56.5564L184.543 56.5337Z" stroke="#FF5722" stroke-width="0.640927" stroke-linecap="round" stroke-linejoin="round"/>
<path d="M183.264 65.7783C199.127 64.5774 214.818 77.0055 216.997 92.4924C218.126 100.513 216.04 108.761 217.585 116.714C219.752 127.884 228.641 136.563 237.944 143.337C247.236 150.101 257.555 155.879 264.864 164.681C272.185 173.484 275.793 186.615 269.671 196.256C263.746 205.591 250.799 208.831 244.977 218.234C235.523 233.517 250.165 254.68 242.141 270.733C238.094 278.845 228.698 283.592 219.51 283.682C210.321 283.773 201.456 279.74 194.331 274.03C185.927 267.301 179.194 257.999 169.026 254.295C152.47 248.279 135.074 259.336 117.769 262.735C101.467 265.941 83.1251 261.432 72.2651 249.061C61.405 236.689 60.1945 216.286 71.4811 204.299C77.5798 197.83 86.8719 193.661 89.7772 185.312C93.3857 174.946 85.3156 164.636 79.286 155.426C74.2826 147.79 70.3513 139.157 70.1207 130.071C69.8901 120.996 73.9713 111.435 81.9492 106.846C101.398 95.6419 127.614 117.19 145.957 101.567C160.125 89.4901 159.641 67.557 183.252 65.767L183.264 65.7783Z" stroke="#FF5722" stroke-width="0.606591" stroke-linecap="round" stroke-linejoin="round"/>
<path d="M181.984 75.0229C196.498 73.924 210.863 85.2984 212.846 99.4711C213.872 106.812 211.97 114.358 213.376 121.642C215.359 131.861 223.499 139.814 232.007 146C240.515 152.185 249.946 157.476 256.644 165.531C263.342 173.586 266.651 185.606 261.048 194.432C255.629 202.974 243.778 205.942 238.451 214.541C229.793 228.521 243.201 247.894 235.857 262.588C232.157 270.008 223.556 274.359 215.14 274.438C206.724 274.517 198.62 270.835 192.106 265.613C184.416 259.45 178.248 250.941 168.945 247.554C153.796 242.048 137.875 252.165 122.046 255.28C107.128 258.215 90.3419 254.091 80.4042 242.773C70.4664 231.455 69.3597 212.774 79.6894 201.807C85.2693 195.882 93.766 192.075 96.4291 184.428C99.7263 174.946 92.3479 165.509 86.8372 157.08C82.2603 150.09 78.6518 142.193 78.4558 133.878C78.2483 125.573 81.9836 116.827 89.2813 112.624C107.082 102.371 131.073 122.095 147.847 107.787C160.805 96.7408 160.367 76.6656 181.984 75.0229Z" stroke="#FF5722" stroke-width="0.572256" stroke-linecap="round" stroke-linejoin="round"/>
<path d="M180.704 84.2675C193.87 83.2706 206.898 93.5914 208.708 106.45C209.642 113.1 207.912 119.954 209.192 126.559C210.99 135.826 218.369 143.043 226.093 148.662C233.817 154.281 242.372 159.074 248.447 166.381C254.523 173.688 257.52 184.587 252.436 192.596C247.513 200.346 236.769 203.042 231.938 210.848C224.087 223.536 236.25 241.108 229.586 254.431C226.22 261.16 218.426 265.103 210.794 265.182C203.162 265.25 195.807 261.908 189.893 257.172C182.918 251.576 177.327 243.861 168.876 240.791C155.134 235.794 140.688 244.982 126.323 247.803C112.789 250.466 97.5593 246.727 88.5439 236.451C79.5284 226.176 78.5139 209.239 87.8983 199.292C92.9594 193.922 100.672 190.455 103.082 183.533C106.079 174.934 99.3809 166.37 94.3774 158.722C90.2271 152.378 86.9529 145.218 86.7685 137.673C86.584 130.139 89.9734 122.209 96.5909 118.391C112.731 109.09 134.497 126.978 149.727 114.006C161.486 103.98 161.083 85.7743 180.693 84.2902L180.704 84.2675Z" stroke="#FF5722" stroke-width="0.537921" stroke-linecap="round" stroke-linejoin="round"/>
<path d="M179.425 93.5121C191.253 92.6171 202.943 101.884 204.569 113.429C205.41 119.399 203.854 125.551 205.007 131.476C206.621 139.803 213.25 146.272 220.179 151.313C227.107 156.355 234.797 160.66 240.25 167.219C245.703 173.779 248.401 183.567 243.836 190.75C239.42 197.706 229.771 200.13 225.436 207.132C218.392 218.518 229.298 234.299 223.326 246.263C220.306 252.301 213.308 255.847 206.46 255.915C199.611 255.983 193.006 252.981 187.691 248.721C181.431 243.702 176.404 236.769 168.83 234.016C156.494 229.529 143.524 237.777 130.635 240.303C118.484 242.694 104.811 239.329 96.7177 230.119C88.6245 220.897 87.7137 205.682 96.1412 196.754C100.684 191.928 107.612 188.824 109.78 182.604C112.466 174.878 106.459 167.197 101.963 160.331C98.2395 154.633 95.2996 148.209 95.1267 141.434C94.9538 134.671 97.9974 127.545 103.946 124.123C118.438 115.774 137.979 131.839 151.652 120.181C162.212 111.186 161.843 94.8376 179.448 93.5008L179.425 93.5121Z" stroke="#FF5722" stroke-width="0.503585" stroke-linecap="round" stroke-linejoin="round"/>
<path d="M178.145 102.768C188.625 101.975 198.989 110.188 200.419 120.407C201.157 125.698 199.785 131.158 200.811 136.404C202.24 143.779 208.12 149.512 214.253 153.987C220.387 158.462 227.2 162.268 232.031 168.08C236.861 173.892 239.248 182.57 235.201 188.937C231.293 195.1 222.738 197.241 218.899 203.449C212.651 213.544 222.323 227.512 217.032 238.117C214.357 243.475 208.155 246.613 202.079 246.67C196.003 246.727 190.158 244.064 185.455 240.303C179.909 235.851 175.459 229.71 168.738 227.275C157.809 223.298 146.315 230.605 134.89 232.848C124.122 234.967 112.017 231.987 104.846 223.819C97.6749 215.651 96.8679 202.169 104.327 194.262C108.35 189.99 114.484 187.237 116.409 181.72C118.795 174.877 113.469 168.069 109.48 161.985C106.183 156.943 103.578 151.245 103.428 145.24C103.278 139.247 105.976 132.937 111.244 129.901C124.087 122.503 141.403 136.732 153.508 126.411C162.858 118.436 162.547 103.946 178.145 102.768Z" stroke="#FF5722" stroke-width="0.46925" stroke-linecap="round" stroke-linejoin="round"/>
<path d="M176.865 112.012C185.996 111.321 195.023 118.47 196.279 127.386C196.925 131.997 195.726 136.755 196.614 141.321C197.859 147.744 202.978 152.752 208.327 156.638C213.676 160.524 219.613 163.854 223.821 168.918C228.029 173.983 230.116 181.539 226.588 187.09C223.176 192.46 215.728 194.33 212.373 199.745C206.932 208.536 215.359 220.715 210.748 229.96C208.419 234.627 203.012 237.358 197.72 237.414C192.429 237.46 187.333 235.148 183.229 231.863C178.398 227.988 174.513 222.641 168.668 220.511C159.145 217.044 149.127 223.411 139.166 225.371C129.782 227.218 119.233 224.624 112.984 217.509C106.736 210.394 106.033 198.646 112.535 191.747C116.039 188.019 121.389 185.629 123.06 180.825C125.136 174.866 120.49 168.918 117.031 163.628C114.149 159.232 111.889 154.259 111.751 149.036C111.624 143.813 113.964 138.319 118.553 135.667C129.747 129.221 144.838 141.627 155.387 132.631C163.538 125.687 163.261 113.055 176.853 112.024L176.865 112.012Z" stroke="#FF5722" stroke-width="0.434915" stroke-linecap="round" stroke-linejoin="round"/>
<path d="M175.574 121.257C183.356 120.668 191.057 126.763 192.117 134.365C192.671 138.296 191.645 142.352 192.406 146.249C193.466 151.732 197.836 155.992 202.389 159.311C206.955 162.631 212.004 165.463 215.601 169.78C219.187 174.096 220.962 180.542 217.965 185.278C215.059 189.855 208.707 191.452 205.848 196.063C201.213 203.563 208.396 213.94 204.453 221.825C202.47 225.802 197.859 228.136 193.351 228.181C188.843 228.226 184.497 226.244 181.004 223.445C176.876 220.137 173.579 215.583 168.587 213.77C160.471 210.814 151.928 216.24 143.443 217.917C135.442 219.492 126.45 217.282 121.123 211.21C115.797 205.138 115.198 195.123 120.743 189.243C123.74 186.071 128.294 184.02 129.712 179.93C131.476 174.844 127.522 169.78 124.571 165.271C122.115 161.521 120.19 157.284 120.074 152.831C119.959 148.379 121.965 143.689 125.873 141.434C135.419 135.939 148.274 146.51 157.278 138.84C164.229 132.915 163.987 122.152 175.574 121.28V121.257Z" stroke="#FF5722" stroke-width="0.389134" stroke-linecap="round" stroke-linejoin="round"/>
</g>
<defs>
<clipPath id="clip0_2059_2678">
<rect width="334.425" height="348.381" fill="white" transform="translate(0.959961 0.5)"/>
</clipPath>
</defs>
</svg>
